<svg id="Mi_sitio_web" data-name="Mi sitio web" xmlns="http://www.w3.org/2000/svg" viewBox="0 0 210.93 41.28"><defs><style>.cls-1{fill:#fff;}.cls-2{fill:#231f20;}</style></defs><rect class="cls-1" x="0.5" y="0.5" width="48.34" height="40.28"/><path class="cls-2" d="M240.51,47.16V86.44H193.17V47.16h47.34m1-1H192.17V87.44h49.34V46.16Z" transform="translate(-192.17 -46.16)"/><rect x="48.27" width="162.67" height="41.28"/><path d="M210.82,69.49H211l4.57-13.2h8V80.77h-5.1V62.64h-.14l-5.45,15.2h-4.4l-5.38-15.2h-.21V80.77H198V56.29h8.21Z" transform="translate(-192.17 -46.16)"/><path d="M231.51,52.76a3,3,0,0,1,3.11,3.14,3,3,0,0,1-3.11,3,3,3,0,0,1-3-3A3,3,0,0,1,231.51,52.76ZM229,61h5.27V80.77H229Z" transform="translate(-192.17 -46.16)"/><path class="cls-1" d="M248.15,66.8c0-3.21,2.75-6.11,7.33-6.11,3.56,0,5.83,1.25,7.13,2.76l-3.39,3.31a5.28,5.28,0,0,0-3.88-1.85c-1.19,0-2,.63-2,1.54,0,3,9.3,1.92,9.3,8.52,0,2.62-2.07,6.15-7.79,6.15a11,11,0,0,1-8-3L250,74.52A7.19,7.19,0,0,0,255.17,77c1.64,0,2.27-.77,2.27-1.67C257.44,72.42,248.15,73.37,248.15,66.8Z" transform="translate(-192.17 -46.16)"/><path class="cls-1" d="M268.94,52.76a3,3,0,0,1,3.11,3.14,3.06,3.06,0,1,1-3.11-3.14ZM266.39,61h5.27V80.77h-5.27Z" transform="translate(-192.17 -46.16)"/><path class="cls-1" d="M277,74.45v-9.4h-2.52V61.77L277,60.72l1.82-4.64h3.35v5h4.92v4h-4.92v9.54a1.86,1.86,0,0,0,2.06,2.06,4.68,4.68,0,0,0,2.69-.87l1.36,3.94c-.66.49-2.2,1.23-5.48,1.23S277,79.23,277,74.45Z" transform="translate(-192.17 -46.16)"/><path class="cls-1" d="M293.29,52.76a3,3,0,0,1,3.11,3.14,3.06,3.06,0,1,1-3.11-3.14ZM290.75,61H296V80.77h-5.27Z" transform="translate(-192.17 -46.16)"/><path class="cls-1" d="M299.87,71c0-6.08,2.55-10.3,9.08-10.3,6.81,0,8.94,4,8.94,10.16s-2.59,10.3-9.12,10.3C302,81.15,299.87,77.1,299.87,71ZM309,77c2.69,0,3.52-2,3.52-6s-1-6.25-3.73-6.25c-2.41,0-3.46,2-3.46,6S306.29,77,309,77Z" transform="translate(-192.17 -46.16)"/><path class="cls-1" d="M343.68,67.57l-3.21,13.2h-6L329.29,61h5.27l2.1,9.11a46.44,46.44,0,0,1,1,6.15h.14a39.24,39.24,0,0,1,1.09-6.11L341.34,61h5l2.13,9a33.35,33.35,0,0,1,1.08,6.25h.14A53.11,53.11,0,0,1,350.91,70L353,61h4.68l-5.1,19.73h-6.15l-2.62-13.2Z" transform="translate(-192.17 -46.16)"/><path class="cls-1" d="M375.93,79c-1.53,1.26-3.45,2.2-7.23,2.2-6.21,0-9.39-3.49-9.39-10.3,0-6.39,3.56-10.2,9.25-10.2,5,0,7.93,3.18,7.93,8a23.76,23.76,0,0,1-.24,3.53H364.48c.07,3.11,1.46,4.82,4.82,4.82a6,6,0,0,0,4.33-1.78ZM364.58,68.68h6.95v-.52c0-2.3-1-3.53-3.11-3.53C366.05,64.63,364.65,66.38,364.58,68.68Z" transform="translate(-192.17 -46.16)"/><path class="cls-1" d="M380.31,54.3h5.21v7.61h.13a7.26,7.26,0,0,1,3.85-1.08c4.47,0,7.79,2.44,7.79,9.71,0,6-3.53,10.58-10.1,10.58a15.52,15.52,0,0,1-6.88-1.26ZM392.05,71c0-4.41-1.54-5.8-3.81-5.8a3.59,3.59,0,0,0-2.66,1V76.65a6,6,0,0,0,2,.28C390.37,76.93,392.05,75.15,392.05,71Z" transform="translate(-192.17 -46.16)"/></svg>